#!OML:ASF F:\VICON\USERDATA\INSTALL\rory3\rory3.ASF
:FULLY-SPECIFIED
:DEGREES
2093
root 0.264918 16.1899 -1.40724 14.815 2.94976 0.770297
lowerback 24.7501 0.166483 -2.1125
upperback 10.3067 -0.167101 1.08735
thorax -2.37831 -0.15257 2.42334
lowerneck 1.48897 -8.12432 -18.0706
upperneck -12.7614 -9.46936 29.4922
head -1.20129 -5.37702 12.7095
rclavicle -6.95746e-015 -9.93923e-017
rhumerus -15.0088 -84.5967 -17.0534
rradius 32.007
rwrist -22.5823
rhand -47.2567 -23.9487
rfingers 7.12502
rthumb -19.9541 -52.9442
lclavicle -6.95746e-015 -9.93923e-017
lhumerus -12.0405 66.7926 25.4454
lradius 32.5171
lwrist 56.6218
lhand -28.2874 38.6017
lfingers 7.12502
lthumb -1.66351 68.575
rfemur -41.6434 -4.026 18.0728
rtibia 52.8753
rfoot -25.9257 -7.02221
rtoes -21.0888
lfemur -43.052 -2.77827 -18.2137
ltibia 52.6882
lfoot -22.4401 -2.74951
ltoes -14.0399
2094
root 0.268583 16.1987 -1.40996 15.145 2.94385 0.83566
lowerback 24.8676 0.178622 -2.08636
upperback 10.2946 -0.151172 1.01865
thorax -2.44998 -0.141122 2.331
lowerneck 1.60378 -8.13934 -17.9347
upperneck -13.1267 -9.42743 29.6002
head -1.33083 -5.38929 12.7537
rclavicle -2.18663e-015 -4.96962e-016
rhumerus -20.4041 -84.1014 -11.9178
rradius 32.1489
rwrist -22.8049
rhand -47.2103 -24.1062
rfingers 7.12502
rthumb -19.9094 -53.1064
lclavicle -2.18663e-015 -4.96962e-016
lhumerus -12.9033 65.6667 24.8305
lradius 32.8934
lwrist 57.348
lhand -28.3347 38.6459
lfingers 7.12502
lthumb -1.70918 68.6188
rfemur -41.9449 -4.04661 18.0041
rtibia 52.7144
rfoot -25.8243 -6.93114
rtoes -21.0146
lfemur -43.339 -2.80128 -18.2858
ltibia 52.5252
lfoot -22.3267 -2.73271
ltoes -13.7369
2095
root 0.272268 16.2104 -1.41192 15.516 2.92998 0.932527
lowerback 24.9843 0.215825 -2.1315
upperback 10.2527 -0.117227 0.992548
thorax -2.55397 -0.123001 2.3209
lowerneck 1.64891 -8.17257 -17.8775
upperneck -13.4248 -9.41937 29.6937
head -1.41738 -5.40744 12.7971
rclavicle -3.67752e-015 5.46658e-015
rhumerus -24.4935 -83.6961 -7.94362
rradius 32.2011
rwrist -22.9546
rhand -47.2301 -24.0797
rfingers 7.12502
rthumb -19.9285 -53.0778
lclavicle -3.67752e-015 5.46658e-015
lhumerus -13.6121 64.8455 24.3581
lradius 33.0739
lwrist 57.786
lhand -28.3295 38.6763
lfingers 7.12502
lthumb -1.70418 68.6492
rfemur -42.2736 -4.04912 17.8918
rtibia 52.5473
rfoot -25.6841 -6.87253
rtoes -21.1392
lfemur -43.6404 -2.80472 -18.3933
ltibia 52.3394
lfoot -22.2094 -2.67534
ltoes -13.7775
2096
root 0.275425 16.2216 -1.41501 15.8746 2.91765 0.929127
lowerback 25.108 0.230412 -2.10715
upperback 10.2176 -0.0964846 0.977853
thorax -2.65364 -0.110198 2.28674
lowerneck 1.56914 -8.20303 -17.7378
upperneck -13.562 -9.41968 29.6973
head -1.44803 -5.41518 12.7736
rclavicle -7.7526e-015 1.14301e-014
rhumerus -27.5584 -83.2241 -5.08035
rradius 32.3296
rwrist -23.2026
rhand -47.1864 -23.9382
rfingers 7.12502
rthumb -19.8864 -52.9407
lclavicle -7.7526e-015 1.14301e-014
lhumerus -14.4145 63.6936 23.8031
lradius 33.3495
lwrist 58.3986
lhand -28.5546 38.7599
lfingers 7.12502
lthumb -1.92157 68.731
rfemur -42.5979 -4.01826 17.9016
rtibia 52.3568
rfoot -25.5064 -6.94221
rtoes -21.4312
lfemur -43.9611 -2.77423 -18.3887
ltibia 52.1643
lfoot -22.1235 -2.67115
ltoes -13.9334
2097
root 0.278277 16.2325 -1.41738 16.1976 2.96403 0.900578
lowerback 25.1891 0.186239 -2.04912
upperback 10.2196 -0.140299 0.980552
thorax -2.6886 -0.129683 2.26873
lowerneck 1.54268 -8.19924 -17.6226
upperneck -13.7538 -9.37231 29.6733
head -1.51629 -5.40227 12.7551
rclavicle -5.86415e-015 5.36719e-015
rhumerus -29.4991 -82.7317 -3.3803
rradius 32.4685
rwrist -23.4544
rhand -47.0048 -23.8466
rfingers 7.12502
rthumb -19.7119 -52.8672
lclavicle -5.86415e-015 5.36719e-015
lhumerus -15.3658 62.7863 23.0882
lradius 33.5489
lwrist 58.7633
lhand -28.4913 38.8128
lfingers 7.12502
lthumb -1.86043 68.7844
rfemur -42.8709 -4.00998 17.9409
rtibia 52.1457
rfoot -25.3283 -6.99037
rtoes -21.3726
lfemur -44.252 -2.82119 -18.3284
ltibia 51.9883
lfoot -22.03 -2.68745
ltoes -13.7878
2098
root 0.281254 16.2439 -1.41806 16.4732 3.05314 0.811922
lowerback 25.3119 0.139617 -1.86814
upperback 10.2178 -0.15918 0.998809
thorax -2.75027 -0.133942 2.19099
lowerneck 1.56371 -8.21646 -17.5644
upperneck -13.9501 -9.36042 29.6981
head -1.5779 -5.41024 12.7662
rclavicle 4.47266e-015 -6.4605e-015
rhumerus -31.8369 -82.2967 -1.24678
rradius 32.601
rwrist -23.8358
rhand -47.0858 -23.7875
rfingers 7.12502
rthumb -19.7898 -52.8
lclavicle 4.47266e-015 -6.4605e-015
lhumerus -16.1102 62.0437 22.5147
lradius 33.5878
lwrist 58.8664
lhand -28.2521 38.7296
lfingers 7.12502
lthumb -1.62939 68.7031
rfemur -43.0604 -4.05563 18.0632
rtibia 51.9281
rfoot -25.1633 -6.97195
rtoes -21.2441
lfemur -44.4998 -2.79137 -18.2275
ltibia 51.82
lfoot -21.8779 -2.72155
ltoes -13.816
